<svg style="fill:#f39c12;" xmlns="http://www.w3.org/2000/svg" height="25px" viewBox="-3 0 511 512" width="25px"><path d="m490.527344 160h-270.011719c-8.28125 0-15 6.714844-15 15s6.71875 15 15 15h16.480469c11.453125 112.144531 20.398437 199.480469 28.847656 281.605469 2.367188 23.027343 21.609375 40.394531 44.761719 40.394531h89.84375c23.160156 0 42.40625-17.371094 44.765625-40.410156l9.054687-88.402344c6.59375-64.394531 13.191407-128.792969 19.8125-193.1875h16.445313c8.285156 0 15-6.714844 15-15 0-8.28125-6.71875-15-15-15zm0 0"/><path d="m195.5 290h-180c-6.066406 0-11.535156 3.652344-13.859375 9.261719-2.320313 5.601562-1.035156 12.054687 3.253906 16.34375l85.605469 85.609375v80.785156h-30c-8.285156 0-15 6.714844-15 15 0 8.28125 6.714844 15 15 15h90c8.28125 0 15-6.71875 15-15 0-8.285156-6.71875-15-15-15h-30v-80.785156l85.605469-85.609375c4.292969-4.289063 5.574219-10.738281 3.253906-16.34375-2.324219-5.609375-7.792969-9.261719-13.859375-9.261719zm0 0"/><path d="m415.542969 78.148438v-18.148438c0-33.085938-26.917969-60-60.003907-60-33.082031 0-59.996093 26.914062-59.996093 60v18.148438c-24.523438 8.699218-44.195313 27.734374-53.734375 51.851562h227.46875c-9.539063-24.117188-29.210938-43.152344-53.734375-51.851562zm0 0"/></svg>