<svg xmlns="http://www.w3.org/2000/svg" style="fill:#f39c12;" height="25px" viewBox="-3 0 511 512" width="25px"><path d="m490.027344 160h-15.039063c-1.246093-37.808594-25.921875-69.785156-59.945312-81.851562v-18.148438c0-33.085938-26.917969-60-60.003907-60-33.082031 0-59.996093 26.914062-59.996093 60v18.148438c-34.023438 12.066406-58.699219 44.042968-59.945313 81.851562h-15.082031c-8.285156 0-15 6.714844-15 15s6.714844 15 15 15h16.480469c11.453125 112.144531 20.398437 199.480469 28.84375 281.605469 2.367187 23.027343 21.613281 40.394531 44.765625 40.394531h89.84375c23.160156 0 42.402343-17.371094 44.765625-40.410156 0 0 22.246094-217.195313 28.867187-281.589844h16.445313c8.28125 0 15-6.714844 15-15s-6.71875-15-15-15zm-164.984375-100c0-16.542969 13.457031-30 29.996093-30 16.542969 0 30.003907 13.457031 30.003907 30v13h-60zm0 43h60c32.078125 0 58.355469 25.304688 59.921875 57h-179.847656c1.570312-31.695312 27.847656-57 59.925781-57zm89.828125 365.527344c-.789063 7.683594-7.203125 13.472656-14.921875 13.472656h-89.84375c-7.71875 0-14.132813-5.789062-14.921875-13.464844-8.371094-81.375-17.230469-167.855468-28.53125-278.535156h176.769531c-6.515625 63.375-28.550781 278.527344-28.550781 278.527344zm0 0"/><path d="m195 290h-180c-6.066406 0-11.535156 3.652344-13.859375 9.261719-2.320313 5.601562-1.035156 12.054687 3.253906 16.34375l85.605469 85.609375v80.785156h-30c-8.285156 0-15 6.714844-15 15 0 8.28125 6.714844 15 15 15h90c8.28125 0 15-6.71875 15-15 0-8.285156-6.71875-15-15-15h-30v-80.785156l85.605469-85.609375c4.292969-4.289063 5.574219-10.738281 3.253906-16.34375-2.324219-5.609375-7.792969-9.261719-13.859375-9.261719zm-90 83.785156-53.789062-53.785156h107.574218zm0 0"/></svg>