<?xml version="1.0" standalone="no"?>
<!DOCTYPE svg PUBLIC "-//W3C//DTD SVG 20010904//EN"
 "http://www.w3.org/TR/2001/REC-SVG-20010904/DTD/svg10.dtd">
<svg version="1.0" xmlns="http://www.w3.org/2000/svg"
 width="1500.000000pt" height="1500.000000pt" viewBox="0 0 1500.000000 1500.000000"
 preserveAspectRatio="xMidYMid meet">
<metadata>
Created by potrace 1.11, written by Peter Selinger 2001-2013
</metadata>
<g transform="translate(0.000000,1500.000000) scale(0.100000,-0.100000)"
fill="#000000" stroke="none">
<path d="M17 13324 c-28 -28 56 -204 148 -309 39 -45 166 -185 195 -215 14
-14 72 -77 130 -140 129 -139 227 -242 605 -636 33 -34 209 -214 390 -399 182
-185 331 -340 333 -343 1 -4 -316 -7 -705 -6 -390 0 -711 -1 -715 -3 -6 -3
113 -172 147 -209 6 -6 147 -192 315 -413 168 -222 388 -511 489 -644 101
-133 255 -336 342 -452 88 -115 245 -322 349 -460 105 -137 277 -365 383 -505
215 -285 208 -276 222 -293 41 -47 239 -315 245 -332 5 -11 19 -31 32 -45 13
-14 77 -88 143 -165 66 -77 128 -149 138 -160 10 -11 49 -55 85 -97 37 -43 70
-78 74 -78 5 0 8 -1035 8 -2300 l0 -2300 -47 -1 c-46 0 -69 -2 -208 -14 -136
-11 -288 -32 -437 -59 -264 -48 -535 -143 -688 -241 -358 -230 -223 -512 333
-693 70 -23 137 -44 149 -46 13 -3 32 -7 43 -10 63 -15 216 -46 255 -52 25 -3
54 -8 65 -10 26 -6 103 -15 220 -29 236 -27 821 -27 1020 -1 17 2 62 7 100 11
39 3 77 8 85 10 8 2 35 6 60 9 36 4 187 33 318 62 12 2 75 20 140 40 275 83
479 202 548 319 38 65 44 149 15 208 -59 122 -230 236 -481 321 -105 35 -312
90 -382 100 -21 3 -57 10 -80 15 -24 5 -67 12 -97 16 -30 4 -61 8 -70 10 -9 1
-47 6 -86 9 -38 4 -81 9 -95 11 -43 6 -243 18 -277 16 l-33 -2 0 2299 0 2299
108 130 c184 222 316 390 494 628 94 127 271 361 392 520 121 160 283 373 360
475 77 102 192 253 256 336 63 83 125 164 137 180 12 16 85 112 162 214 77
102 280 370 451 595 171 226 316 417 323 425 7 8 46 60 87 115 41 55 77 102
80 105 14 14 101 130 98 131 -2 1 -1048 2 -2326 3 l-2324 1 -80 85 c-44 47
-103 110 -130 140 -28 30 -96 104 -152 164 -56 60 -114 123 -129 140 -16 17
-75 81 -131 141 -57 61 -115 124 -130 140 -26 28 -180 194 -251 271 -16 17
-50 54 -75 80 -25 27 -76 83 -115 124 -59 63 -163 176 -311 336 -16 17 -67 73
-114 125 -134 148 -222 231 -281 266 -57 34 -109 50 -122 37z m2958 -3149
c220 -217 398 -395 395 -395 -3 -1 -26 -3 -51 -5 -273 -24 -523 -217 -599
-464 -59 -189 -20 -367 108 -499 106 -107 254 -163 425 -157 307 9 579 223
647 510 9 39 20 69 25 69 4 -1 85 -79 180 -173 178 -177 240 -229 112 -93 -40
42 -100 106 -133 142 -32 36 -83 90 -111 120 -33 35 -53 64 -54 80 -5 144 -85
285 -214 376 -37 26 -149 71 -195 79 -37 6 -34 3 -251 236 -132 141 -188 201
-379 409 -52 57 -106 114 -119 127 -13 13 -21 26 -19 29 3 2 699 3 1547 2
l1543 -3 -331 -445 c-182 -245 -510 -686 -728 -980 -219 -294 -401 -539 -405
-545 -79 -103 -149 -183 -203 -233 -227 -208 -481 -288 -752 -236 -201 38
-402 151 -583 327 -50 50 -152 180 -310 398 -129 178 -288 398 -354 489 -343
473 -871 1204 -880 1218 -6 9 125 12 641 12 l649 0 399 -395z m42 -1063 c53
-42 96 -123 99 -187 6 -139 -116 -183 -220 -79 -49 50 -70 102 -71 177 0 66 2
70 34 99 29 26 40 30 77 25 27 -3 57 -15 81 -35z m268 -6329 c-60 -9 -178 -44
-223 -67 -75 -38 -104 -84 -81 -128 16 -31 34 -45 95 -74 281 -134 923 -87
1000 74 15 32 15 39 3 61 -28 50 -121 95 -256 125 l-68 16 65 -5 c294 -22 553
-119 575 -215 9 -37 -31 -89 -90 -122 -51 -29 -180 -73 -238 -83 -17 -3 -39
-8 -47 -10 -33 -9 -73 -15 -245 -35 -73 -8 -482 -6 -525 3 -14 3 -52 8 -85 12
-33 3 -69 8 -80 11 -11 2 -31 6 -45 8 -101 17 -243 65 -301 102 -48 30 -79 70
-79 102 0 42 75 105 167 140 126 48 332 90 443 89 31 0 35 -1 15 -4z"/>
<path d="M8620 11273 c-6 -26 -13 -55 -15 -63 -8 -38 -29 -114 -62 -220 -20
-63 -38 -119 -39 -125 -5 -21 -85 -251 -99 -285 -8 -19 -48 -134 -91 -255 -42
-121 -79 -226 -82 -234 -8 -21 38 -4 72 28 30 28 61 74 157 233 87 144 162
249 196 274 35 26 88 54 103 54 17 0 2 -188 -24 -305 -51 -230 -54 -243 -62
-372 -6 -91 -5 -103 9 -103 10 0 20 14 26 38 26 99 31 119 36 152 16 99 27
156 57 305 15 72 22 145 22 210 -1 198 -52 214 -184 56 -30 -36 -83 -95 -117
-131 l-63 -65 0 45 c0 76 48 239 160 550 36 98 74 239 67 246 -1 1 -14 5 -28
9 -25 6 -27 3 -39 -42z"/>
<path d="M8276 11283 c-7 -24 -23 -99 -31 -143 -3 -19 -10 -51 -15 -70 -5 -19
-11 -51 -14 -71 -3 -20 -8 -42 -10 -50 -3 -8 -8 -25 -10 -39 -14 -73 -72 -280
-107 -385 -68 -200 -147 -360 -216 -436 -37 -41 -116 -85 -133 -74 -15 9 -46
73 -58 120 -6 22 -13 87 -16 145 -4 99 -21 171 -53 225 -11 19 -11 19 -33 0
-12 -11 -59 -97 -105 -191 -45 -94 -88 -175 -95 -179 -7 -5 -11 -4 -8 1 3 5 9
58 13 118 4 60 8 119 10 130 6 38 14 110 21 181 3 39 9 98 13 132 4 33 8 141
10 240 l3 178 -24 -21 c-13 -12 -33 -27 -45 -33 l-23 -12 0 -534 c0 -362 3
-535 10 -535 16 0 60 31 60 42 0 14 109 305 143 381 23 51 33 65 42 57 21 -17
28 -77 39 -316 5 -107 12 -141 38 -191 9 -18 17 -21 37 -16 61 14 126 61 185
134 18 21 106 166 105 172 0 1 18 40 39 87 63 137 157 402 176 495 3 11 14 58
25 105 32 135 62 333 53 358 -6 18 -20 15 -26 -5z"/>
<path d="M10013 10990 c-32 -13 -51 -48 -58 -110 -15 -127 -26 -190 -33 -190
-4 0 -38 -5 -77 -10 -102 -15 -136 -19 -175 -25 -137 -18 -130 -15 -130 -59
l0 -33 98 19 c53 10 133 20 177 21 91 2 86 10 71 -103 -4 -30 -10 -73 -12 -95
-3 -22 -9 -74 -14 -115 -5 -41 -12 -106 -15 -145 -4 -38 -9 -73 -11 -77 -3 -4
0 -8 5 -8 19 0 71 81 86 134 18 60 31 142 40 246 7 81 28 165 48 191 12 17 75
38 351 124 81 26 146 48 143 51 -4 4 -154 -21 -247 -42 -14 -3 -36 -7 -50 -10
-14 -3 -52 -11 -85 -19 -33 -7 -63 -11 -67 -7 -4 4 0 45 8 92 20 112 16 174
-11 177 -11 1 -30 -2 -42 -7z"/>
<path d="M12355 10776 c-22 -7 -68 -27 -102 -44 -34 -18 -68 -29 -76 -26 -8 3
-19 20 -24 37 -9 28 -11 30 -18 12 -4 -11 -29 -74 -56 -140 -127 -316 -174
-502 -139 -555 9 -13 11 -13 20 0 6 8 15 33 21 55 6 22 35 113 64 202 43 131
63 177 104 236 61 88 94 121 141 140 38 16 140 19 198 6 64 -14 86 33 33 70
-34 24 -103 27 -166 7z"/>
<path d="M13040 10727 c-218 -79 -409 -255 -468 -432 -11 -32 -18 -65 -17 -74
2 -9 4 -24 4 -33 1 -26 59 -87 105 -110 36 -18 51 -20 146 -14 112 7 136 10
215 28 57 13 121 43 107 52 -11 6 -138 0 -235 -12 -260 -32 -328 25 -240 204
29 61 41 67 155 89 130 24 316 107 389 173 56 50 62 76 26 118 -33 38 -101 42
-187 11z m139 -41 c41 -49 -149 -162 -323 -191 -17 -3 -39 -8 -48 -11 -10 -3
-18 0 -18 6 0 23 28 76 51 96 51 44 155 90 229 101 19 3 37 7 39 9 11 10 60 3
70 -10z"/>
<path d="M9313 10684 c-152 -42 -317 -203 -387 -379 -39 -97 -41 -125 -11
-158 24 -28 29 -29 88 -23 34 3 97 14 140 25 l77 18 0 -119 c0 -116 1 -119 21
-116 18 2 25 17 40 76 11 40 55 163 99 272 89 222 117 315 116 375 l-1 40 -65
2 c-36 1 -88 -5 -117 -13z m85 -57 c4 -17 -51 -153 -104 -260 -59 -118 -125
-171 -243 -196 -84 -18 -97 2 -61 99 49 135 202 313 314 366 51 24 88 21 94
-9z"/>
<path d="M11695 10681 c-155 -51 -304 -197 -374 -366 -44 -104 -46 -134 -16
-168 23 -26 29 -28 82 -24 32 3 89 12 126 21 104 24 97 32 97 -99 l0 -115 25
0 c19 0 25 5 25 23 0 38 28 122 102 307 96 239 119 312 121 378 l2 57 -70 1
c-41 1 -90 -5 -120 -15z m92 -47 c12 -33 -118 -321 -170 -375 -56 -57 -198
-110 -238 -89 -23 13 -23 22 -4 88 33 111 210 328 307 375 43 21 97 22 105 1z"/>
<path d="M12631 9125 c-91 -83 -219 -407 -371 -939 -28 -99 -53 -182 -55 -186
-2 -3 0 -12 5 -19 6 -11 12 -6 23 16 18 34 105 249 149 368 16 43 35 93 42
110 8 16 35 86 61 155 26 69 54 139 61 155 6 17 40 102 74 190 34 88 64 166
67 173 10 23 -17 12 -56 -23z"/>
<path d="M10597 9050 c-45 -68 -77 -134 -118 -238 -17 -43 -36 -90 -42 -107
-7 -16 -32 -70 -57 -120 -47 -95 -63 -107 -106 -84 -79 42 -334 -135 -408
-283 -28 -56 -32 -91 -16 -134 10 -24 14 -26 51 -21 75 10 141 52 251 162 80
79 113 105 132 105 31 0 33 -18 12 -96 -18 -68 -17 -162 2 -199 17 -33 60 -71
79 -69 7 1 22 2 34 3 18 1 17 4 -12 28 -40 34 -68 96 -69 149 0 85 56 315 95
391 8 15 15 33 15 39 0 6 6 24 14 40 120 249 206 434 211 455 5 21 2 27 -12
31 -15 4 -28 -8 -56 -52z m-360 -612 c6 -7 13 -24 16 -37 5 -21 -8 -39 -91
-123 -91 -93 -147 -132 -220 -153 -22 -6 -23 -5 -17 36 17 113 115 234 221
273 49 18 79 19 91 4z"/>
<path d="M11454 9048 c-11 -13 -26 -35 -33 -50 -12 -23 -12 -31 3 -53 9 -14
15 -37 14 -51 -2 -17 4 -31 17 -40 19 -12 20 -11 21 24 0 21 9 55 19 76 14 29
16 46 9 74 -11 44 -24 49 -50 20z"/>
<path d="M13197 9038 c-36 -48 -42 -76 -22 -98 11 -12 15 -28 12 -42 -7 -24 8
-48 29 -48 8 0 11 8 9 20 -2 12 5 45 17 75 16 42 19 63 12 87 -13 43 -28 45
-57 6z"/>
<path d="M11794 8732 c-19 -13 -51 -77 -72 -142 -19 -61 -68 -270 -79 -335 -3
-16 -15 -63 -28 -102 l-23 -73 32 -9 c19 -5 36 -4 44 3 24 18 97 118 155 211
58 93 94 134 162 179 52 34 57 33 51 -10 -4 -19 -9 -56 -12 -82 -2 -26 -7 -58
-9 -72 -3 -14 -8 -86 -11 -162 -7 -156 2 -203 43 -219 14 -5 27 -8 28 -7 5 6
14 127 20 258 8 192 15 297 20 312 2 7 6 31 9 53 3 22 8 50 10 63 6 26 -12 37
-47 28 -46 -11 -152 -133 -295 -341 -26 -37 -36 -45 -43 -34 -5 8 -7 25 -4 39
2 14 7 41 10 60 8 52 28 169 51 295 13 77 10 102 -12 87z"/>
<path d="M13523 8707 c-39 -57 -86 -217 -120 -411 -2 -16 -17 -71 -32 -122
-30 -100 -29 -106 24 -108 25 -1 99 90 173 213 57 95 132 172 192 197 16 7 30
12 30 10 0 -1 -7 -52 -16 -112 -23 -162 -28 -387 -10 -423 12 -23 53 -48 62
-38 2 2 10 90 19 217 2 25 4 92 5 150 3 123 19 266 36 323 3 10 -1 20 -10 23
-56 21 -125 -48 -324 -326 -47 -65 -66 -69 -57 -12 25 161 56 337 63 367 11
40 9 78 -3 82 -5 1 -20 -12 -32 -30z"/>
<path d="M11025 8716 c-22 -7 -69 -27 -104 -45 -34 -18 -69 -30 -76 -27 -7 2
-16 19 -20 36 -8 39 -14 33 -44 -45 -12 -33 -27 -69 -32 -80 -70 -157 -149
-413 -149 -485 0 -54 9 -92 21 -85 4 3 38 99 74 213 37 114 76 223 88 242 39
64 108 150 141 175 40 30 124 41 211 27 64 -11 85 -4 85 29 0 50 -104 74 -195
45z"/>
<path d="M11402 8721 c-8 -4 -20 -46 -28 -92 -8 -46 -32 -147 -53 -224 -36
-129 -43 -157 -56 -224 -8 -43 -17 -216 -11 -210 11 10 86 229 127 369 61 207
85 323 80 378 -1 14 -39 16 -59 3z"/>
<path d="M13141 8708 c-5 -13 -11 -42 -15 -66 -8 -62 -42 -202 -66 -275 -35
-105 -79 -419 -55 -396 16 16 153 443 170 526 1 10 8 36 14 58 12 45 18 84 23
135 3 33 1 35 -30 38 -26 3 -34 -1 -41 -20z"/>
<path d="M7448 8712 c-14 -3 -18 -15 -19 -60 -3 -133 -18 -228 -73 -485 -14
-65 -26 -120 -26 -122 0 -8 92 24 118 40 15 10 50 35 79 57 49 38 123 68 165
68 17 0 19 -6 15 -50 -3 -34 0 -56 11 -72 30 -43 44 -49 102 -43 156 16 267
131 306 316 13 64 13 74 0 87 -22 23 -44 7 -56 -40 -26 -105 -75 -213 -115
-254 -40 -42 -109 -72 -139 -61 -24 10 -39 83 -30 157 12 101 10 110 -18 110
-37 0 -100 -37 -168 -98 -70 -62 -114 -95 -144 -105 -17 -7 -18 -2 -12 75 9
105 14 141 25 187 13 51 30 166 36 238 5 68 5 68 -57 55z"/>
<path d="M8612 8656 c-179 -72 -340 -212 -411 -358 -22 -46 -42 -96 -44 -113
-8 -64 34 -129 108 -167 35 -18 50 -20 145 -14 119 8 145 11 192 21 50 11 138
45 138 54 0 9 -144 6 -221 -4 -76 -11 -178 -15 -216 -8 -18 3 -44 17 -59 31
-22 23 -25 33 -21 72 2 25 17 72 33 105 31 64 27 62 164 91 64 14 241 79 290
107 30 17 76 51 102 75 43 40 46 46 37 72 -27 76 -107 88 -237 36z m164 -27
c19 -15 18 -22 -8 -51 -33 -35 -87 -73 -128 -88 -19 -7 -53 -19 -75 -27 -22
-8 -70 -21 -107 -28 -58 -11 -68 -11 -68 1 0 18 19 51 45 83 56 65 300 144
341 110z"/>
<path d="M14411 8654 c-107 -22 -225 -84 -330 -173 -58 -49 -65 -80 -30 -125
20 -25 24 -26 127 -26 189 -1 250 -55 252 -222 0 -61 -6 -82 -61 -210 -80
-186 -120 -262 -170 -321 -105 -122 -218 -116 -370 22 -45 41 -70 57 -79 51
-11 -7 -11 -16 3 -52 35 -91 98 -142 217 -173 48 -13 57 -12 106 6 49 19 156
90 179 121 102 133 150 224 189 361 26 88 45 202 50 287 2 51 1 53 -38 83 -58
42 -111 63 -193 77 -39 6 -80 13 -90 15 -10 2 -21 4 -25 4 -16 2 -7 56 15 88
23 34 116 87 180 104 21 5 54 13 75 19 20 5 57 12 82 15 25 4 59 8 75 10 17 2
41 4 55 4 20 1 25 7 26 26 l2 26 -92 -2 c-50 -1 -120 -8 -155 -15z"/>
<path d="M12770 8636 c-103 -36 -141 -54 -186 -89 -81 -60 -102 -166 -56 -271
26 -58 110 -184 197 -296 36 -47 89 -122 117 -168 46 -74 82 -112 94 -99 11
10 4 87 -11 132 -20 56 -47 98 -130 200 -31 39 -62 77 -69 86 -98 121 -139
198 -139 262 0 76 37 114 149 151 28 9 62 19 75 21 13 3 38 8 54 11 17 3 37 7
45 9 8 2 18 4 23 4 4 1 7 15 7 31 0 28 -2 30 -39 30 -22 0 -45 2 -53 4 -7 3
-42 -5 -78 -18z"/>
<path d="M10637 6903 c-3 -10 -8 -34 -12 -53 -21 -110 -113 -398 -247 -775
-55 -154 -101 -284 -102 -290 -1 -5 -4 -14 -8 -20 -3 -5 -10 -27 -16 -47 -28
-101 87 10 188 182 144 244 204 321 279 359 64 33 64 32 56 -71 -3 -51 -8 -95
-10 -98 -1 -3 -6 -27 -9 -54 -4 -28 -15 -86 -26 -130 -29 -126 -39 -193 -46
-303 -5 -86 -3 -103 9 -103 14 0 40 69 51 140 3 19 8 46 11 60 8 38 37 192 42
220 2 14 11 61 21 105 17 81 21 207 10 280 -6 38 -29 65 -54 65 -20 0 -97 -70
-150 -138 -27 -34 -73 -86 -103 -115 l-53 -52 6 70 c7 84 45 214 133 459 54
152 98 304 90 312 -1 1 -14 5 -29 9 -20 5 -27 3 -31 -12z"/>
<path d="M9382 6708 c-35 -39 -44 -75 -26 -109 8 -17 14 -39 12 -51 -2 -12 5
-26 18 -34 19 -13 20 -12 18 14 -1 16 5 46 13 68 19 48 23 93 11 117 -12 23
-20 22 -46 -5z"/>
<path d="M12188 6675 c-2 -2 -25 -5 -53 -9 -159 -19 -435 -96 -435 -122 0 -15
133 6 245 39 205 60 247 69 340 72 72 3 99 -1 134 -16 39 -17 43 -21 36 -47
-16 -69 -112 -166 -386 -394 -97 -81 -197 -168 -224 -194 -45 -45 -47 -50 -42
-92 4 -34 14 -53 43 -83 41 -42 43 -43 61 -31 10 6 8 17 -7 47 -51 100 -11
179 161 318 41 34 88 71 103 82 125 90 267 208 297 248 47 62 67 124 46 144
-26 27 -104 42 -211 41 -58 -1 -107 -2 -108 -3z"/>
<path d="M7713 6590 c-32 -13 -51 -48 -58 -110 -18 -157 -25 -190 -39 -191 -6
0 -18 -2 -26 -3 -19 -4 -130 -19 -150 -21 -54 -4 -191 -28 -194 -34 -2 -3 -6
-19 -7 -36 -3 -20 0 -29 9 -27 136 27 352 50 352 37 0 -1 -6 -50 -14 -111 -8
-60 -18 -136 -21 -169 -4 -33 -8 -67 -10 -75 -2 -8 -7 -53 -10 -100 -4 -46 -9
-89 -12 -95 -4 -5 4 -1 16 10 35 30 68 93 85 160 14 57 18 85 32 230 6 70 29
153 47 177 11 14 177 76 228 85 27 4 171 51 224 73 l50 20 -40 -5 c-53 -7 -91
-14 -140 -25 -22 -5 -56 -12 -75 -15 -19 -3 -43 -8 -52 -11 -9 -3 -27 -7 -40
-9 -57 -11 -84 -17 -102 -22 -15 -4 -17 -1 -12 24 3 15 8 46 11 68 3 22 8 61
11 87 12 86 -6 111 -63 88z"/>
<path d="M11383 6590 c-36 -15 -52 -51 -63 -145 -10 -90 -19 -147 -24 -152 -1
-1 -20 -5 -42 -8 -21 -3 -52 -7 -69 -10 -16 -3 -52 -7 -80 -10 -52 -6 -71 -9
-143 -20 -35 -6 -43 -11 -48 -33 -3 -15 -7 -32 -9 -38 -2 -8 18 -7 68 2 148
29 281 41 290 27 3 -5 2 -38 -3 -74 -13 -96 -19 -149 -25 -204 -3 -27 -7 -63
-10 -80 -2 -16 -7 -64 -11 -105 -3 -41 -9 -79 -12 -85 -3 -5 5 -1 17 10 55 48
95 157 106 290 12 151 21 196 46 251 21 44 15 41 204 99 219 67 272 86 291
101 10 9 14 13 9 10 -11 -5 -408 -87 -435 -90 -15 -1 -16 26 -4 94 27 158 15
197 -53 170z"/>
<path d="M8756 6367 c-37 -48 -60 -123 -111 -348 -24 -108 -50 -213 -59 -232
-16 -39 -8 -54 32 -62 31 -6 113 94 197 240 46 80 126 155 188 178 20 7 20 10
-3 -143 -6 -41 -13 -136 -17 -210 -4 -108 -2 -142 10 -171 13 -33 51 -58 61
-41 6 11 16 119 21 242 10 227 16 306 28 376 15 83 13 94 -17 94 -44 0 -118
-73 -223 -219 -115 -161 -124 -172 -133 -166 -10 6 -9 21 16 170 8 50 17 104
20 120 2 17 11 65 20 109 19 94 9 114 -30 63z"/>
<path d="M9296 6256 c-14 -72 -28 -138 -31 -146 -2 -8 -17 -60 -33 -115 -17
-55 -32 -118 -36 -140 -10 -66 -19 -230 -12 -224 10 9 83 222 125 364 45 149
78 292 83 350 3 40 3 40 -33 41 l-36 1 -27 -131z"/>
<path d="M8335 6332 c-71 -44 -202 -212 -257 -332 -41 -89 -52 -131 -52 -210
-1 -87 15 -118 76 -145 45 -21 79 -12 165 44 150 98 253 265 256 416 1 87 -23
145 -84 203 -48 47 -61 50 -104 24z m71 -69 c88 -99 91 -227 8 -365 -59 -96
-218 -227 -258 -212 -24 9 -46 69 -53 141 -9 98 11 140 128 255 l98 97 -2 55
c-3 55 -2 56 26 56 18 0 37 -10 53 -27z"/>
<path d="M10039 6326 c-2 -2 -20 -7 -39 -10 -101 -16 -230 -75 -309 -141 -96
-80 -102 -93 -75 -151 l16 -34 109 0 c144 0 198 -22 237 -95 17 -32 27 -201
13 -220 -4 -5 -16 -30 -25 -55 -21 -53 -29 -71 -94 -212 -56 -120 -58 -122
-129 -193 -99 -100 -200 -87 -343 43 -88 80 -111 72 -66 -23 35 -76 112 -132
206 -151 54 -10 81 -6 140 23 77 37 114 68 176 147 85 108 166 296 187 436 15
100 19 133 21 177 2 45 0 50 -38 77 -59 43 -112 63 -201 76 -110 16 -115 17
-115 47 0 40 29 78 84 111 47 28 153 66 215 77 97 17 124 20 186 23 25 2 31 7
33 27 l2 25 -93 0 c-52 0 -96 -2 -98 -4z"/>
<path d="M11940 5663 c-30 -21 -61 -44 -68 -50 -7 -7 -19 -13 -25 -13 -8 0 -8
-3 1 -12 27 -27 176 47 170 85 -5 32 -20 30 -78 -10z"/>
</g>
</svg>
